# xmcd CD database file
#
# Track frame offsets:
#	182
#	11112
#	26310
#	41090
#	50355
#	62462
#	76180
#	86470
#	96517
#	107412
#	120922
#	131162
#	143830
#	156650
#	169387
#	179472
#	221587
#	241460
#	252560
#	263385
#	277432
#
# Disc length: 4155 seconds
#
# Revision: 1
# Processed by: cddbd v1.5.2PL0 Copyright (c) Steve Scherf et al.
# Submitted via: CDex 1.51
#
DISCID=2c103915
DTITLE=Gene Vincent - 500 Miles
DYEAR=1998
DGENRE=Crossover
TTITLE0=Oh Lonesome Me
TTITLE1=The Woman In Black
TTITLE2=500 Miles
TTITLE3=The Day The World Turned Blue
TTITLE4=Boppin' The Blues
TTITLE5=How I Love Them Old Songs
TTITLE6=Listen To The Music
TTITLE7=If Only You Could See Me Today
TTITLE8=A Million Shades Of Blue
TTITLE9=Sunshine
TTITLE10=I Need A Womans Love
TTITLE11=High On Life
TTITLE12=Our Souls
TTITLE13=You Can Make It If You Try
TTITLE14=Geese
TTITLE15=Slow Times Comin'
TTITLE16=There Is Something On Your Mind
TTITLE17=Looking Back
TTITLE18=Danse Colinda
TTITLE19=North Carolina Line
TTITLE20=Tush Hog
EXTD=YEAR: 1998
EXTT0=
EXTT1=
EXTT2=
EXTT3=
EXTT4=
EXTT5=
EXTT6=
EXTT7=
EXTT8=
EXTT9=
EXTT10=
EXTT11=
EXTT12=
EXTT13=
EXTT14=
EXTT15=
EXTT16=
EXTT17=
EXTT18=
EXTT19=
EXTT20=
PLAYORDER=
